<?xml version="1.0" encoding="UTF-8" standalone="no"?>
<!-- Created with Inkscape (http://www.inkscape.org/) -->

<svg
   xmlns:dc="http://purl.org/dc/elements/1.1/"
   xmlns:cc="http://creativecommons.org/ns#"
   xmlns:rdf="http://www.w3.org/1999/02/22-rdf-syntax-ns#"
   xmlns:svg="http://www.w3.org/2000/svg"
   xmlns="http://www.w3.org/2000/svg"
   xmlns:sodipodi="http://sodipodi.sourceforge.net/DTD/sodipodi-0.dtd"
   xmlns:inkscape="http://www.inkscape.org/namespaces/inkscape"
   width="210mm"
   height="297mm"
   viewBox="0 0 210 297"
   version="1.1"
   id="svg8"
   inkscape:version="0.92.2 5c3e80d, 2017-08-06"
   sodipodi:docname="PnPLogo.svg">
  <defs
     id="defs2" />
  <sodipodi:namedview
     id="base"
     pagecolor="#ffffff"
     bordercolor="#666666"
     borderopacity="1.0"
     inkscape:pageopacity="0.0"
     inkscape:pageshadow="2"
     inkscape:zoom="0.49497475"
     inkscape:cx="358.96725"
     inkscape:cy="555.52844"
     inkscape:document-units="mm"
     inkscape:current-layer="layer2"
     showgrid="false"
     showguides="true"
     inkscape:guide-bbox="true"
     inkscape:window-width="1920"
     inkscape:window-height="1028"
     inkscape:window-x="0"
     inkscape:window-y="0"
     inkscape:window-maximized="1" />
  <metadata
     id="metadata5">
    <rdf:RDF>
      <cc:Work
         rdf:about="">
        <dc:format>image/svg+xml</dc:format>
        <dc:type
           rdf:resource="http://purl.org/dc/dcmitype/StillImage" />
        <dc:title></dc:title>
      </cc:Work>
    </rdf:RDF>
  </metadata>
  <g
     inkscape:groupmode="layer"
     id="layer2"
     inkscape:label="Schatten">
    <path
       style="fill:#333333;stroke:#000000;stroke-width:0.26458332px;stroke-linecap:butt;stroke-linejoin:miter;stroke-opacity:1"
       d="m 8.5526243,243.21831 c 2.0096177,-12.05043 193.2513957,-10.723 195.1067557,-0.53814 5.55574,14.96 -198.0383641,10.70529 -195.1067557,0.53814"
       id="path119"
       inkscape:connector-curvature="0"
       sodipodi:nodetypes="ccc" />
  </g>
  <g
     inkscape:label="Ebene 1"
     inkscape:groupmode="layer"
     id="layer1">
    <path
       style="fill:#550000;stroke:#000000;stroke-width:0.26458332px;stroke-linecap:butt;stroke-linejoin:miter;stroke-opacity:1"
       d="M 79.111778,157.48531 185.48505,102.42778 78.844509,57.526501 Z"
       id="path21"
       inkscape:connector-curvature="0" />
    <path
       style="fill:#550000;stroke:#000000;stroke-width:0.26458332px;stroke-linecap:butt;stroke-linejoin:miter;stroke-opacity:1;fill-opacity:1"
       d="m 60.937451,242.74428 18.174327,-85.25897 93.544332,67.35192 z"
       id="path23"
       inkscape:connector-curvature="0" />
    <path
       style="fill:#550000;stroke:#000000;stroke-width:0.26458332px;stroke-linecap:butt;stroke-linejoin:miter;stroke-opacity:1"
       d="M 185.48505,102.42778 172.65611,224.83723 79.111778,157.48531 Z"
       id="path25"
       inkscape:connector-curvature="0" />
    <path
       style="fill:#550000;stroke:#000000;stroke-width:0.26458332px;stroke-linecap:butt;stroke-linejoin:miter;stroke-opacity:1"
       d="m 203.65938,162.8307 -31.00327,62.00653 12.82894,-122.40945 z"
       id="path27"
       inkscape:connector-curvature="0" />
    <path
       style="fill:#550000;stroke:#000000;stroke-width:0.26458332px;stroke-linecap:butt;stroke-linejoin:miter;stroke-opacity:1"
       d="M 78.844507,57.526501 8.5526247,142.51821 79.111778,157.48531 Z"
       id="path29"
       inkscape:connector-curvature="0" />
    <path
       style="fill:#550000;stroke:#000000;stroke-width:0.26458332px;stroke-linecap:butt;stroke-linejoin:miter;stroke-opacity:1"
       d="M 60.937451,242.74428 79.111778,157.48531 8.5526247,142.51821 Z"
       id="path31"
       inkscape:connector-curvature="0" />
    <path
       style="fill:#808080;stroke:#000000;stroke-width:0.26458332px;stroke-linecap:butt;stroke-linejoin:miter;stroke-opacity:1"
       d="m 106.68378,80.703123 28.91518,34.490327 c -3.24113,0.38168 -5.78898,1.57217 -6.89807,4.44122 L 109.5186,94.971726 c -2.18162,0.05973 -3.60773,1.378649 -4.7247,3.212796 l -4.34673,-5.764136 c 5.31265,-3.559277 5.79802,-7.635765 6.23661,-11.717263 z"
       id="path33"
       inkscape:connector-curvature="0"
       sodipodi:nodetypes="ccccccc" />
    <path
       style="fill:#808080;stroke:#000000;stroke-width:0.26458332px;stroke-linecap:butt;stroke-linejoin:miter;stroke-opacity:1"
       d="m 149.86756,133.80878 c 3.09385,0.59432 4.8173,-0.45585 6.14211,-1.98438 l 11.33929,31.37203 c 1.89575,-0.13079 3.61756,-0.67906 4.6302,-2.92932 l 2.307,3.40179 c -3.42191,3.61286 -6.03126,8.24142 -6.61458,15.40253 z"
       id="path67"
       inkscape:connector-curvature="0"
       sodipodi:nodetypes="ccccccc" />
    <path
       style="fill:#808080;stroke:#000000;stroke-width:0.26458332px;stroke-linecap:butt;stroke-linejoin:miter;stroke-opacity:1"
       d="m 145.23735,153.93601 c 2.06865,2.17977 5.06497,0.3479 5.57515,-3.1183 -6.53136,-14.51073 -27.91965,-9.62474 -26.26935,8.92969 0.84048,6.20702 4.85022,8.77092 8.78795,9.87462 -3.17498,9.95066 1.20179,14.0786 4.63021,17.19792 6.80744,4.97526 21.37556,1.6416 20.03274,-15.59152 -0.77702,-3.0357 -5.54787,-4.27534 -6.66183,-0.28348 0.73615,7.56464 -6.53081,14.53256 -11.29204,6.61459 -0.87228,-3.81921 -0.42458,-9.1127 4.67745,-11.76452 -0.0361,-1.41512 0.11373,-2.92318 -2.36235,-3.1183 -3.93721,0.705 -9.33421,1.39901 -10.20535,-5.05543 -0.58338,-2.35484 5.12751,-13.51349 13.08742,-3.68527 z"
       id="path71"
       inkscape:connector-curvature="0"
       sodipodi:nodetypes="cccccccccccc" />
    <path
       style="fill:#808080;stroke:#000000;stroke-width:0.26458332px;stroke-linecap:butt;stroke-linejoin:miter;stroke-opacity:1;fill-opacity:1"
       d="m 105.92783,215.40439 c -1.75385,-1.03515 -3.40184,-2.25682 -3.89788,-3.54353 -0.44797,-1.29337 -1.00941,-2.36841 0.82682,-4.63021 1.81914,-2.02759 3.9224,-3.8563 6.99256,-5.00818 1.10243,-0.24273 2.3466,-0.50769 3.49628,-0.28349 2.70718,0.94539 4.37146,2.93382 4.58296,5.19718 -0.22135,1.58511 -1.55449,2.79963 -2.88207,4.016 -0.55269,0.91665 5.42788,4.49758 6.3311,3.827 1.94491,-2.30187 4.27941,-3.87866 4.15774,-9.02418 -0.89376,-3.44788 -5.68705,-6.44462 -8.50446,-7.65402 -3.38477,-1.80807 -6.99815,-1.33001 -10.63058,-0.66145 -5.57629,1.98976 -10.030296,4.87735 -13.08743,8.88244 -0.657095,1.28003 -1.876026,1.99822 1.086684,6.89806 1.306636,1.81025 2.447757,3.64056 7.795756,4.96094 l -5.338912,5.10268 c -6.062966,-2.08177 -6.976495,-6.52078 -9.21931,-8.94983 -1.051134,0.80937 -3.304998,2.52814 -3.628829,2.77749 -1.131744,0.87145 0.239087,0.17004 -3.434481,2.99868 4.756433,3.15178 12.482929,5.25916 13.99265,12.95634 3.981126,-3.54804 13.568852,-12.67047 18.164972,-15.0271 -0.64298,-2.35751 -2.97656,-2.88207 -2.97656,-2.88207 -1.14528,0.40935 -2.43139,0.3936 -3.82701,0.0473 z"
       id="path73"
       inkscape:connector-curvature="0"
       sodipodi:nodetypes="ccccccccccccccccscccccc" />
    <path
       style="fill:#808080;stroke:#000000;stroke-width:0.26458332px;stroke-linecap:butt;stroke-linejoin:miter;stroke-opacity:1"
       d="m 47.17307,158.6212 5.813113,5.21176 4.34313,28.53102 2.405425,-1.00226 2.138156,3.54132 -6.34765,10.02261 z"
       id="path75"
       inkscape:connector-curvature="0"
       sodipodi:nodetypes="ccccccc" />
    <path
       style="fill:#808080;stroke:#000000;stroke-width:0.26458332px;stroke-linecap:butt;stroke-linejoin:miter;stroke-opacity:1"
       d="m 35.814116,191.49535 3.207234,6.68174 c 3.18917,-0.1495 6.060218,1.38742 8.953529,2.80633 l 2.80633,-0.93544 c -0.766676,-6.17204 -2.017534,-12.24725 -3.674954,-18.24115 -1.151439,-1.81302 -2.00949,-3.87751 -4.34313,-4.67721 -1.541712,-0.0692 -2.123104,1.20596 -2.80633,2.3386 -0.839747,-0.13547 -0.822204,1.28035 -5.211757,-5.27857 -0.92389,-5.44944 -0.614987,-8.55207 0.06682,-11.75986 0.731087,-0.34363 1.463288,-0.5765 2.204974,0.13363 2.290022,1.18854 2.62519,3.21487 3.808589,4.87767 0.723878,2.22729 0.778787,3.11665 1.002261,4.34313 1.274281,0.54701 2.510656,0.63914 3.608138,-0.93544 -0.133633,-1.20271 -0.378632,-3.02906 -0.868625,-4.40995 -0.493697,-2.72024 -2.386139,-4.10433 -3.674956,-6.34765 -3.841597,-3.39615 -4.505144,-4.28242 -5.011305,-4.34313 -3.102324,-1.74947 -5.444362,-0.0106 -6.88219,2.07134 -1.217796,5.56197 -0.899305,10.89511 1.80407,17.10525 1.629044,3.17529 2.745392,6.80358 5.813114,9.02034 2.077431,1.55628 4.089704,3.46007 6.681737,2.2718 0.93739,1.90381 1.376205,3.93226 1.603618,6.01356 -3.239963,1.1259 -6.200718,0.43695 -9.087167,-0.73499 z"
       id="path77"
       inkscape:connector-curvature="0"
       sodipodi:nodetypes="cccccccccccccccccccccc" />
    <path
       style="fill:#808080;stroke:#000000;stroke-width:0.26458332px;stroke-linecap:butt;stroke-linejoin:miter;stroke-opacity:1"
       d="m 41.760864,118.99849 c -0.58575,1.35797 -1.10586,2.97792 -0.467722,9.2208 0.561176,-1.02039 1.222224,-1.69123 2.138156,-1.46998 1.016928,0.36858 1.733642,0.99985 1.336347,2.60588 -1.43647,4.93142 -5.018139,6.51097 -9.287616,7.01582 -0.988874,-6.80686 -0.768119,-13.3938 0.200451,-19.84476 0.778199,-2.60485 3.221376,-3.71123 5.746295,-4.74403 9.332161,-1.31346 18.664322,-1.45067 27.996483,-1.73726 1.582258,0.51867 1.647152,1.49256 1.469983,2.53906 -0.620124,1.69788 -0.445498,3.29379 -4.34313,5.41221 -8.263082,-0.17311 -16.526165,-0.38587 -24.789247,1.00226 z"
       id="path79"
       inkscape:connector-curvature="0"
       sodipodi:nodetypes="ccccccccccc" />
    <path
       style="fill:#808080;stroke:#000000;stroke-width:0.26458332px;stroke-linecap:butt;stroke-linejoin:miter;stroke-opacity:1"
       d="m 184.86494,172.38551 c 0.9453,-2.96904 1.0797,-4.95973 0.60136,-7.75081 l 6.949,0.60136 c 1.17445,-1.1359 0.42634,-1.5368 0.26728,-2.6727 l 3.47451,1.26953 c -0.25154,2.12767 -0.12269,4.30969 0.86862,6.61491 z"
       id="path81-7"
       inkscape:connector-curvature="0"
       sodipodi:nodetypes="ccccccc" />
    <path
       style="fill:#808080;stroke:#000000;stroke-width:0.26458332px;stroke-linecap:butt;stroke-linejoin:miter;stroke-opacity:1"
       d="m 184.8369,160.38853 c 0.9453,-2.96904 1.0797,-4.95973 0.60136,-7.75081 l 6.949,1.26953 c 1.17445,-1.1359 0.55997,-1.00225 0.40091,-2.13815 l 3.4077,0.8018 c -0.20273,2.04792 -0.61581,3.99068 0.20044,6.54809 z"
       id="path81-7-5"
       inkscape:connector-curvature="0"
       sodipodi:nodetypes="ccccccc" />
  </g>
  <g
     inkscape:groupmode="layer"
     id="layer3"
     inkscape:label="SchattenOberhalb">
    <path
       style="fill:#333333;fill-opacity:0.456;stroke:#000000;stroke-width:0.26458332px;stroke-linecap:butt;stroke-linejoin:miter;stroke-opacity:0"
       d="M 192.97262,126.97639 203.65938,162.8307 172.65611,224.83723 60.937451,242.74428 17.76262,160.7086 c 60.276737,13.27824 123.77107,0.0231 175.21,-33.73221 z"
       id="path124"
       inkscape:connector-curvature="0"
       sodipodi:nodetypes="cccccc" />
  </g>
</svg>
